<?xml version="1.0" encoding="UTF-8" standalone="no"?>
<!DOCTYPE svg PUBLIC "-//W3C//DTD SVG 1.1//EN"
 "http://www.w3.org/Graphics/SVG/1.1/DTD/svg11.dtd">
<!-- Generated by graphviz version 12.0.0 (20240704.0754)
 -->
<!-- Pages: 1 -->
<svg width="2179pt" height="206pt"
 viewBox="0.00 0.00 2178.50 206.00" xmlns="http://www.w3.org/2000/svg" xmlns:xlink="http://www.w3.org/1999/xlink">
<g id="graph0" class="graph" transform="scale(1 1) rotate(0) translate(4 202)">
<polygon fill="white" stroke="none" points="-4,4 -4,-202 2174.5,-202 2174.5,4 -4,4"/>
<!-- 1727259286112 -->
<g id="node1" class="node">
<title>1727259286112</title>
<polygon fill="none" stroke="black" points="610,-27.5 610,-63.5 894,-63.5 894,-27.5 610,-27.5"/>
<text text-anchor="middle" x="686.62" y="-40.2" font-family="Times New Roman,serif" font-size="14.00">data [[ 4 6 6] [16 15 12]]</text>
<polyline fill="none" stroke="black" points="763.25,-27.75 763.25,-63.5"/>
<text text-anchor="middle" x="828.62" y="-40.2" font-family="Times New Roman,serif" font-size="14.00">grad [[3 3 3] [3 3 3]]</text>
</g>
<!-- 1727259286208+ -->
<g id="node6" class="node">
<title>1727259286208+</title>
<ellipse fill="none" stroke="black" cx="957" cy="-68.5" rx="27" ry="18"/>
<text text-anchor="middle" x="957" y="-63.08" font-family="Times New Roman,serif" font-size="14.00">+</text>
</g>
<!-- 1727259286112&#45;&gt;1727259286208+ -->
<g id="edge11" class="edge">
<title>1727259286112&#45;&gt;1727259286208+</title>
<path fill="none" stroke="black" d="M894.27,-61.51C902.92,-62.49 911.12,-63.41 918.54,-64.26"/>
<polygon fill="black" stroke="black" points="918.05,-67.72 928.38,-65.37 918.83,-60.77 918.05,-67.72"/>
</g>
<!-- 1727259286976+ -->
<g id="node16" class="node">
<title>1727259286976+</title>
<ellipse fill="none" stroke="black" cx="1380.5" cy="-69.5" rx="27" ry="18"/>
<text text-anchor="middle" x="1380.5" y="-64.08" font-family="Times New Roman,serif" font-size="14.00">+</text>
</g>
<!-- 1727259286112&#45;&gt;1727259286976+ -->
<g id="edge12" class="edge">
<title>1727259286112&#45;&gt;1727259286976+</title>
<path fill="none" stroke="black" d="M894.05,-42.03C906.21,-41.81 918.32,-41.63 930,-41.5 1067.99,-39.94 1278.32,-34.28 1317.5,-42.5 1328.02,-44.71 1338.94,-48.79 1348.64,-53.12"/>
<polygon fill="black" stroke="black" points="1347.07,-56.25 1357.61,-57.38 1350.08,-49.93 1347.07,-56.25"/>
</g>
<!-- 1727259286112* -->
<g id="node2" class="node">
<title>1727259286112*</title>
<ellipse fill="none" stroke="black" cx="547" cy="-45.5" rx="27" ry="18"/>
<text text-anchor="middle" x="547" y="-40.08" font-family="Times New Roman,serif" font-size="14.00">*</text>
</g>
<!-- 1727259286112*&#45;&gt;1727259286112 -->
<g id="edge1" class="edge">
<title>1727259286112*&#45;&gt;1727259286112</title>
<path fill="none" stroke="black" d="M574.12,-45.5C581.13,-45.5 589.22,-45.5 598.03,-45.5"/>
<polygon fill="black" stroke="black" points="598.01,-49 608.01,-45.5 598.01,-42 598.01,-49"/>
</g>
<!-- 1727259287168 -->
<g id="node3" class="node">
<title>1727259287168</title>
<polygon fill="none" stroke="black" points="1870,-78.5 1870,-114.5 2170.5,-114.5 2170.5,-78.5 1870,-78.5"/>
<text text-anchor="middle" x="1954.88" y="-91.2" font-family="Times New Roman,serif" font-size="14.00">data [[26 32 20] [62 59 38]]</text>
<polyline fill="none" stroke="black" points="2039.75,-78.75 2039.75,-114.5"/>
<text text-anchor="middle" x="2105.12" y="-91.2" font-family="Times New Roman,serif" font-size="14.00">grad [[1 1 1] [1 1 1]]</text>
</g>
<!-- 1727259287168+ -->
<g id="node4" class="node">
<title>1727259287168+</title>
<ellipse fill="none" stroke="black" cx="1807" cy="-96.5" rx="27" ry="18"/>
<text text-anchor="middle" x="1807" y="-91.08" font-family="Times New Roman,serif" font-size="14.00">+</text>
</g>
<!-- 1727259287168+&#45;&gt;1727259287168 -->
<g id="edge2" class="edge">
<title>1727259287168+&#45;&gt;1727259287168</title>
<path fill="none" stroke="black" d="M1834.33,-96.5C1841.4,-96.5 1849.6,-96.5 1858.53,-96.5"/>
<polygon fill="black" stroke="black" points="1858.23,-100 1868.23,-96.5 1858.23,-93 1858.23,-100"/>
</g>
<!-- 1727259286208 -->
<g id="node5" class="node">
<title>1727259286208</title>
<polygon fill="none" stroke="black" points="1020,-51.5 1020,-87.5 1317.5,-87.5 1317.5,-51.5 1020,-51.5"/>
<text text-anchor="middle" x="1103.38" y="-64.2" font-family="Times New Roman,serif" font-size="14.00">data [[ 8 12 12] [32 30 24]]</text>
<polyline fill="none" stroke="black" points="1186.75,-51.75 1186.75,-87.5"/>
<text text-anchor="middle" x="1252.12" y="-64.2" font-family="Times New Roman,serif" font-size="14.00">grad [[1 1 1] [1 1 1]]</text>
</g>
<!-- 1727259286208&#45;&gt;1727259286976+ -->
<g id="edge10" class="edge">
<title>1727259286208&#45;&gt;1727259286976+</title>
<path fill="none" stroke="black" d="M1317.99,-69.5C1326.46,-69.5 1334.48,-69.5 1341.76,-69.5"/>
<polygon fill="black" stroke="black" points="1341.74,-73 1351.74,-69.5 1341.74,-66 1341.74,-73"/>
</g>
<!-- 1727259286208+&#45;&gt;1727259286208 -->
<g id="edge3" class="edge">
<title>1727259286208+&#45;&gt;1727259286208</title>
<path fill="none" stroke="black" d="M984.14,-68.62C991.25,-68.66 999.49,-68.7 1008.46,-68.74"/>
<polygon fill="black" stroke="black" points="1008.22,-72.24 1018.24,-68.79 1008.25,-65.24 1008.22,-72.24"/>
</g>
<!-- 1726829259552 -->
<g id="node7" class="node">
<title>1726829259552</title>
<polygon fill="none" stroke="black" points="0,-83.5 0,-119.5 154.25,-119.5 154.25,-83.5 0,-83.5"/>
<text text-anchor="middle" x="39.88" y="-96.2" font-family="Times New Roman,serif" font-size="14.00">data [3 1 1]</text>
<polyline fill="none" stroke="black" points="79.75,-83.75 79.75,-119.5"/>
<text text-anchor="middle" x="117" y="-96.2" font-family="Times New Roman,serif" font-size="14.00">grad None</text>
</g>
<!-- 1727259285872+ -->
<g id="node10" class="node">
<title>1727259285872+</title>
<ellipse fill="none" stroke="black" cx="217.25" cy="-73.5" rx="27" ry="18"/>
<text text-anchor="middle" x="217.25" y="-68.08" font-family="Times New Roman,serif" font-size="14.00">+</text>
</g>
<!-- 1726829259552&#45;&gt;1727259285872+ -->
<g id="edge8" class="edge">
<title>1726829259552&#45;&gt;1727259285872+</title>
<path fill="none" stroke="black" d="M154.46,-86.03C163.35,-84.22 172.07,-82.46 180.04,-80.84"/>
<polygon fill="black" stroke="black" points="180.5,-84.32 189.61,-78.9 179.11,-77.46 180.5,-84.32"/>
</g>
<!-- 1727259286352 -->
<g id="node8" class="node">
<title>1727259286352</title>
<polygon fill="none" stroke="black" points="1091.62,-161.5 1091.62,-197.5 1245.88,-197.5 1245.88,-161.5 1091.62,-161.5"/>
<text text-anchor="middle" x="1131.5" y="-174.2" font-family="Times New Roman,serif" font-size="14.00">data [9 8 1]</text>
<polyline fill="none" stroke="black" points="1171.38,-161.75 1171.38,-197.5"/>
<text text-anchor="middle" x="1208.62" y="-174.2" font-family="Times New Roman,serif" font-size="14.00">grad None</text>
</g>
<!-- 1727259286400+ -->
<g id="node12" class="node">
<title>1727259286400+</title>
<ellipse fill="none" stroke="black" cx="1380.5" cy="-124.5" rx="27" ry="18"/>
<text text-anchor="middle" x="1380.5" y="-119.08" font-family="Times New Roman,serif" font-size="14.00">+</text>
</g>
<!-- 1727259286352&#45;&gt;1727259286400+ -->
<g id="edge13" class="edge">
<title>1727259286352&#45;&gt;1727259286400+</title>
<path fill="none" stroke="black" d="M1246.15,-169.19C1269.35,-165.08 1294.72,-159.61 1317.5,-152.5 1327.74,-149.3 1338.52,-144.85 1348.16,-140.44"/>
<polygon fill="black" stroke="black" points="1349.58,-143.64 1357.11,-136.19 1346.58,-137.31 1349.58,-143.64"/>
</g>
<!-- 1727259285872 -->
<g id="node9" class="node">
<title>1727259285872</title>
<polygon fill="none" stroke="black" points="287,-55.5 287,-91.5 477.25,-91.5 477.25,-55.5 287,-55.5"/>
<text text-anchor="middle" x="326.88" y="-68.2" font-family="Times New Roman,serif" font-size="14.00">data [4 3 2]</text>
<polyline fill="none" stroke="black" points="366.75,-55.75 366.75,-91.5"/>
<text text-anchor="middle" x="422" y="-68.2" font-family="Times New Roman,serif" font-size="14.00">grad [[15 21 27]]</text>
</g>
<!-- 1727259285872&#45;&gt;1727259286112* -->
<g id="edge7" class="edge">
<title>1727259285872&#45;&gt;1727259286112*</title>
<path fill="none" stroke="black" d="M477.4,-57.29C488.7,-55.35 499.67,-53.47 509.39,-51.79"/>
<polygon fill="black" stroke="black" points="509.83,-55.27 519.09,-50.13 508.64,-48.37 509.83,-55.27"/>
</g>
<!-- 1727259285872+&#45;&gt;1727259285872 -->
<g id="edge4" class="edge">
<title>1727259285872+&#45;&gt;1727259285872</title>
<path fill="none" stroke="black" d="M244.42,-73.5C253.32,-73.5 263.89,-73.5 275.15,-73.5"/>
<polygon fill="black" stroke="black" points="275.09,-77 285.09,-73.5 275.09,-70 275.09,-77"/>
</g>
<!-- 1727259286400 -->
<g id="node11" class="node">
<title>1727259286400</title>
<polygon fill="none" stroke="black" points="1502,-106.5 1502,-142.5 1685.5,-142.5 1685.5,-106.5 1502,-106.5"/>
<text text-anchor="middle" x="1548.62" y="-119.2" font-family="Times New Roman,serif" font-size="14.00">data [14 14 2]</text>
<polyline fill="none" stroke="black" points="1595.25,-106.75 1595.25,-142.5"/>
<text text-anchor="middle" x="1640.38" y="-119.2" font-family="Times New Roman,serif" font-size="14.00">grad [[2 2 2]]</text>
</g>
<!-- 1727259286400&#45;&gt;1727259287168+ -->
<g id="edge15" class="edge">
<title>1727259286400&#45;&gt;1727259287168+</title>
<path fill="none" stroke="black" d="M1685.87,-112.42C1715.16,-108.54 1745.97,-104.46 1769.05,-101.4"/>
<polygon fill="black" stroke="black" points="1769.41,-104.88 1778.87,-100.1 1768.49,-97.94 1769.41,-104.88"/>
</g>
<!-- 1727259286400+&#45;&gt;1727259286400 -->
<g id="edge5" class="edge">
<title>1727259286400+&#45;&gt;1727259286400</title>
<path fill="none" stroke="black" d="M1407.83,-124.5C1428.91,-124.5 1459.92,-124.5 1490.55,-124.5"/>
<polygon fill="black" stroke="black" points="1490.28,-128 1500.28,-124.5 1490.28,-121 1490.28,-128"/>
</g>
<!-- 1727259285920 -->
<g id="node13" class="node">
<title>1727259285920</title>
<polygon fill="none" stroke="black" points="280.25,-0.5 280.25,-36.5 484,-36.5 484,-0.5 280.25,-0.5"/>
<text text-anchor="middle" x="344.88" y="-13.2" font-family="Times New Roman,serif" font-size="14.00">data [[1 2 3] [4 5 6]]</text>
<polyline fill="none" stroke="black" points="409.5,-0.75 409.5,-36.5"/>
<text text-anchor="middle" x="446.75" y="-13.2" font-family="Times New Roman,serif" font-size="14.00">grad None</text>
</g>
<!-- 1727259285920&#45;&gt;1727259286112* -->
<g id="edge17" class="edge">
<title>1727259285920&#45;&gt;1727259286112*</title>
<path fill="none" stroke="black" d="M484.42,-35.29C493.08,-36.73 501.43,-38.11 509.02,-39.37"/>
<polygon fill="black" stroke="black" points="508.36,-42.81 518.79,-40.99 509.5,-35.9 508.36,-42.81"/>
</g>
<!-- 1726829258160 -->
<g id="node14" class="node">
<title>1726829258160</title>
<polygon fill="none" stroke="black" points="0,-28.5 0,-64.5 154.25,-64.5 154.25,-28.5 0,-28.5"/>
<text text-anchor="middle" x="39.88" y="-41.2" font-family="Times New Roman,serif" font-size="14.00">data [1 2 1]</text>
<polyline fill="none" stroke="black" points="79.75,-28.75 79.75,-64.5"/>
<text text-anchor="middle" x="117" y="-41.2" font-family="Times New Roman,serif" font-size="14.00">grad None</text>
</g>
<!-- 1726829258160&#45;&gt;1727259285872+ -->
<g id="edge9" class="edge">
<title>1726829258160&#45;&gt;1727259285872+</title>
<path fill="none" stroke="black" d="M154.46,-61.42C163.16,-63.12 171.71,-64.79 179.53,-66.32"/>
<polygon fill="black" stroke="black" points="178.82,-69.75 189.31,-68.23 180.16,-62.88 178.82,-69.75"/>
</g>
<!-- 1727259286976 -->
<g id="node15" class="node">
<title>1727259286976</title>
<polygon fill="none" stroke="black" points="1443.5,-51.5 1443.5,-87.5 1744,-87.5 1744,-51.5 1443.5,-51.5"/>
<text text-anchor="middle" x="1528.38" y="-64.2" font-family="Times New Roman,serif" font-size="14.00">data [[12 18 18] [48 45 36]]</text>
<polyline fill="none" stroke="black" points="1613.25,-51.75 1613.25,-87.5"/>
<text text-anchor="middle" x="1678.62" y="-64.2" font-family="Times New Roman,serif" font-size="14.00">grad [[1 1 1] [1 1 1]]</text>
</g>
<!-- 1727259286976&#45;&gt;1727259287168+ -->
<g id="edge14" class="edge">
<title>1727259286976&#45;&gt;1727259287168+</title>
<path fill="none" stroke="black" d="M1739.45,-87.99C1749.98,-89.34 1759.91,-90.61 1768.73,-91.74"/>
<polygon fill="black" stroke="black" points="1768.14,-95.19 1778.51,-92.99 1769.03,-88.25 1768.14,-95.19"/>
</g>
<!-- 1727259286976+&#45;&gt;1727259286976 -->
<g id="edge6" class="edge">
<title>1727259286976+&#45;&gt;1727259286976</title>
<path fill="none" stroke="black" d="M1407.83,-69.5C1414.9,-69.5 1423.1,-69.5 1432.03,-69.5"/>
<polygon fill="black" stroke="black" points="1431.73,-73 1441.73,-69.5 1431.73,-66 1431.73,-73"/>
</g>
<!-- 1726829259216 -->
<g id="node17" class="node">
<title>1726829259216</title>
<polygon fill="none" stroke="black" points="1091.62,-106.5 1091.62,-142.5 1245.88,-142.5 1245.88,-106.5 1091.62,-106.5"/>
<text text-anchor="middle" x="1131.5" y="-119.2" font-family="Times New Roman,serif" font-size="14.00">data [5 6 1]</text>
<polyline fill="none" stroke="black" points="1171.38,-106.75 1171.38,-142.5"/>
<text text-anchor="middle" x="1208.62" y="-119.2" font-family="Times New Roman,serif" font-size="14.00">grad None</text>
</g>
<!-- 1726829259216&#45;&gt;1727259286400+ -->
<g id="edge16" class="edge">
<title>1726829259216&#45;&gt;1727259286400+</title>
<path fill="none" stroke="black" d="M1246.36,-124.5C1278.84,-124.5 1315.22,-124.5 1341.74,-124.5"/>
<polygon fill="black" stroke="black" points="1341.66,-128 1351.66,-124.5 1341.66,-121 1341.66,-128"/>
</g>
</g>
</svg>
