<?xml version="1.0" encoding="UTF-8" standalone="no"?>
<!DOCTYPE svg PUBLIC "-//W3C//DTD SVG 1.1//EN"
 "http://www.w3.org/Graphics/SVG/1.1/DTD/svg11.dtd">
<!-- Generated by graphviz version 12.0.0 (20240704.0754)
 -->
<!-- Pages: 1 -->
<svg width="2129pt" height="201pt"
 viewBox="0.00 0.00 2129.00 201.00" xmlns="http://www.w3.org/2000/svg" xmlns:xlink="http://www.w3.org/1999/xlink">
<g id="graph0" class="graph" transform="scale(1 1) rotate(0) translate(4 197)">
<polygon fill="white" stroke="none" points="-4,4 -4,-197 2125,-197 2125,4 -4,4"/>
<!-- 2268853693504 -->
<g id="node1" class="node">
<title>2268853693504</title>
<polygon fill="none" stroke="black" points="1525.25,-48.5 1525.25,-84.5 1744.75,-84.5 1744.75,-48.5 1525.25,-48.5"/>
<text text-anchor="middle" x="1579.75" y="-61.2" font-family="Times New Roman,serif" font-size="14.00">data shape (2, 3)</text>
<polyline fill="none" stroke="black" points="1634.25,-48.75 1634.25,-84.5"/>
<text text-anchor="middle" x="1689.5" y="-61.2" font-family="Times New Roman,serif" font-size="14.00">grad shape (2, 3)</text>
</g>
<!-- 2268853693696+ -->
<g id="node12" class="node">
<title>2268853693696+</title>
<ellipse fill="none" stroke="black" cx="1838.5" cy="-93.5" rx="27" ry="18"/>
<text text-anchor="middle" x="1838.5" y="-88.08" font-family="Times New Roman,serif" font-size="14.00">+</text>
</g>
<!-- 2268853693504&#45;&gt;2268853693696+ -->
<g id="edge12" class="edge">
<title>2268853693504&#45;&gt;2268853693696+</title>
<path fill="none" stroke="black" d="M1745.01,-81.11C1765.15,-83.81 1784.86,-86.45 1800.87,-88.59"/>
<polygon fill="black" stroke="black" points="1799.95,-92 1810.32,-89.86 1800.88,-85.06 1799.95,-92"/>
</g>
<!-- 2268853693504+ -->
<g id="node2" class="node">
<title>2268853693504+</title>
<ellipse fill="none" stroke="black" cx="1431.5" cy="-66.5" rx="27" ry="18"/>
<text text-anchor="middle" x="1431.5" y="-61.08" font-family="Times New Roman,serif" font-size="14.00">+</text>
</g>
<!-- 2268853693504+&#45;&gt;2268853693504 -->
<g id="edge1" class="edge">
<title>2268853693504+&#45;&gt;2268853693504</title>
<path fill="none" stroke="black" d="M1458.84,-66.5C1473.58,-66.5 1493.12,-66.5 1513.8,-66.5"/>
<polygon fill="black" stroke="black" points="1513.52,-70 1523.52,-66.5 1513.52,-63 1513.52,-70"/>
</g>
<!-- 2268853693024 -->
<g id="node3" class="node">
<title>2268853693024</title>
<polygon fill="none" stroke="black" points="1123.5,-156.5 1123.5,-192.5 1368.5,-192.5 1368.5,-156.5 1123.5,-156.5"/>
<text text-anchor="middle" x="1208.75" y="-169.2" font-family="Times New Roman,serif" font-size="14.00">data 9.0000, 8.0000, 1.0000</text>
<polyline fill="none" stroke="black" points="1294,-156.75 1294,-192.5"/>
<text text-anchor="middle" x="1331.25" y="-169.2" font-family="Times New Roman,serif" font-size="14.00">grad None</text>
</g>
<!-- 2268853693072+ -->
<g id="node7" class="node">
<title>2268853693072+</title>
<ellipse fill="none" stroke="black" cx="1431.5" cy="-121.5" rx="27" ry="18"/>
<text text-anchor="middle" x="1431.5" y="-116.08" font-family="Times New Roman,serif" font-size="14.00">+</text>
</g>
<!-- 2268853693024&#45;&gt;2268853693072+ -->
<g id="edge16" class="edge">
<title>2268853693024&#45;&gt;2268853693072+</title>
<path fill="none" stroke="black" d="M1338.37,-156.05C1348.6,-153.44 1358.82,-150.58 1368.5,-147.5 1378.33,-144.37 1388.77,-140.31 1398.22,-136.32"/>
<polygon fill="black" stroke="black" points="1399.6,-139.54 1407.37,-132.34 1396.81,-133.12 1399.6,-139.54"/>
</g>
<!-- 2268853692880 -->
<g id="node4" class="node">
<title>2268853692880</title>
<polygon fill="none" stroke="black" points="1136.25,-3.5 1136.25,-39.5 1355.75,-39.5 1355.75,-3.5 1136.25,-3.5"/>
<text text-anchor="middle" x="1190.75" y="-16.2" font-family="Times New Roman,serif" font-size="14.00">data shape (2, 3)</text>
<polyline fill="none" stroke="black" points="1245.25,-3.75 1245.25,-39.5"/>
<text text-anchor="middle" x="1300.5" y="-16.2" font-family="Times New Roman,serif" font-size="14.00">grad shape (2, 3)</text>
</g>
<!-- 2268853692880&#45;&gt;2268853693504+ -->
<g id="edge8" class="edge">
<title>2268853692880&#45;&gt;2268853693504+</title>
<path fill="none" stroke="black" d="M1322.43,-40C1347.5,-46.15 1374.25,-52.71 1394.87,-57.76"/>
<polygon fill="black" stroke="black" points="1393.92,-61.13 1404.47,-60.12 1395.59,-54.34 1393.92,-61.13"/>
</g>
<!-- 2268853692880+ -->
<g id="node5" class="node">
<title>2268853692880+</title>
<ellipse fill="none" stroke="black" cx="1060.5" cy="-22.5" rx="27" ry="18"/>
<text text-anchor="middle" x="1060.5" y="-17.07" font-family="Times New Roman,serif" font-size="14.00">+</text>
</g>
<!-- 2268853692880+&#45;&gt;2268853692880 -->
<g id="edge2" class="edge">
<title>2268853692880+&#45;&gt;2268853692880</title>
<path fill="none" stroke="black" d="M1087.79,-22.36C1098.19,-22.3 1110.93,-22.23 1124.62,-22.16"/>
<polygon fill="black" stroke="black" points="1124.28,-25.66 1134.26,-22.1 1124.24,-18.66 1124.28,-25.66"/>
</g>
<!-- 2268853693072 -->
<g id="node6" class="node">
<title>2268853693072</title>
<polygon fill="none" stroke="black" points="1494.5,-103.5 1494.5,-139.5 1775.5,-139.5 1775.5,-103.5 1494.5,-103.5"/>
<text text-anchor="middle" x="1549" y="-116.2" font-family="Times New Roman,serif" font-size="14.00">data shape (2, 3)</text>
<polyline fill="none" stroke="black" points="1603.5,-103.75 1603.5,-139.5"/>
<text text-anchor="middle" x="1689.5" y="-116.2" font-family="Times New Roman,serif" font-size="14.00">grad 0.0000, 0.0000, 0.0000</text>
</g>
<!-- 2268853693072&#45;&gt;2268853693696+ -->
<g id="edge13" class="edge">
<title>2268853693072&#45;&gt;2268853693696+</title>
<path fill="none" stroke="black" d="M1769,-103.02C1780.36,-101.44 1791.11,-99.95 1800.58,-98.63"/>
<polygon fill="black" stroke="black" points="1800.92,-102.12 1810.34,-97.27 1799.95,-95.18 1800.92,-102.12"/>
</g>
<!-- 2268853693072+&#45;&gt;2268853693072 -->
<g id="edge3" class="edge">
<title>2268853693072+&#45;&gt;2268853693072</title>
<path fill="none" stroke="black" d="M1458.84,-121.5C1465.82,-121.5 1473.87,-121.5 1482.61,-121.5"/>
<polygon fill="black" stroke="black" points="1482.5,-125 1492.5,-121.5 1482.5,-118 1482.5,-125"/>
</g>
<!-- 2268853692592 -->
<g id="node8" class="node">
<title>2268853692592</title>
<polygon fill="none" stroke="black" points="371,-55.5 371,-91.5 652,-91.5 652,-55.5 371,-55.5"/>
<text text-anchor="middle" x="425.5" y="-68.2" font-family="Times New Roman,serif" font-size="14.00">data shape (2, 3)</text>
<polyline fill="none" stroke="black" points="480,-55.75 480,-91.5"/>
<text text-anchor="middle" x="566" y="-68.2" font-family="Times New Roman,serif" font-size="14.00">grad 0.0000, 0.0000, 0.0000</text>
</g>
<!-- 2268853692832* -->
<g id="node14" class="node">
<title>2268853692832*</title>
<ellipse fill="none" stroke="black" cx="715" cy="-45.5" rx="27" ry="18"/>
<text text-anchor="middle" x="715" y="-40.08" font-family="Times New Roman,serif" font-size="14.00">*</text>
</g>
<!-- 2268853692592&#45;&gt;2268853692832* -->
<g id="edge14" class="edge">
<title>2268853692592&#45;&gt;2268853692832*</title>
<path fill="none" stroke="black" d="M645.5,-55.02C656.86,-53.44 667.61,-51.95 677.08,-50.63"/>
<polygon fill="black" stroke="black" points="677.42,-54.12 686.84,-49.27 676.45,-47.18 677.42,-54.12"/>
</g>
<!-- 2268853692592+ -->
<g id="node9" class="node">
<title>2268853692592+</title>
<ellipse fill="none" stroke="black" cx="308" cy="-73.5" rx="27" ry="18"/>
<text text-anchor="middle" x="308" y="-68.08" font-family="Times New Roman,serif" font-size="14.00">+</text>
</g>
<!-- 2268853692592+&#45;&gt;2268853692592 -->
<g id="edge4" class="edge">
<title>2268853692592+&#45;&gt;2268853692592</title>
<path fill="none" stroke="black" d="M335.34,-73.5C342.32,-73.5 350.37,-73.5 359.11,-73.5"/>
<polygon fill="black" stroke="black" points="359,-77 369,-73.5 359,-70 359,-77"/>
</g>
<!-- 2268853692640 -->
<g id="node10" class="node">
<title>2268853692640</title>
<polygon fill="none" stroke="black" points="419.75,-0.5 419.75,-36.5 603.25,-36.5 603.25,-0.5 419.75,-0.5"/>
<text text-anchor="middle" x="474.25" y="-13.2" font-family="Times New Roman,serif" font-size="14.00">data shape (2, 3)</text>
<polyline fill="none" stroke="black" points="528.75,-0.75 528.75,-36.5"/>
<text text-anchor="middle" x="566" y="-13.2" font-family="Times New Roman,serif" font-size="14.00">grad None</text>
</g>
<!-- 2268853692640&#45;&gt;2268853692832* -->
<g id="edge10" class="edge">
<title>2268853692640&#45;&gt;2268853692832*</title>
<path fill="none" stroke="black" d="M603.52,-30.7C629.45,-34.17 656.24,-37.76 676.95,-40.54"/>
<polygon fill="black" stroke="black" points="676.21,-43.97 686.59,-41.83 677.14,-37.03 676.21,-43.97"/>
</g>
<!-- 2268853693696 -->
<g id="node11" class="node">
<title>2268853693696</title>
<polygon fill="none" stroke="black" points="1901.5,-75.5 1901.5,-111.5 2121,-111.5 2121,-75.5 1901.5,-75.5"/>
<text text-anchor="middle" x="1956" y="-88.2" font-family="Times New Roman,serif" font-size="14.00">data shape (2, 3)</text>
<polyline fill="none" stroke="black" points="2010.5,-75.75 2010.5,-111.5"/>
<text text-anchor="middle" x="2065.75" y="-88.2" font-family="Times New Roman,serif" font-size="14.00">grad shape (2, 3)</text>
</g>
<!-- 2268853693696+&#45;&gt;2268853693696 -->
<g id="edge5" class="edge">
<title>2268853693696+&#45;&gt;2268853693696</title>
<path fill="none" stroke="black" d="M1865.81,-93.5C1872.91,-93.5 1881.08,-93.5 1889.85,-93.5"/>
<polygon fill="black" stroke="black" points="1889.73,-97 1899.73,-93.5 1889.73,-90 1889.73,-97"/>
</g>
<!-- 2268853692832 -->
<g id="node13" class="node">
<title>2268853692832</title>
<polygon fill="none" stroke="black" points="778,-27.5 778,-63.5 997.5,-63.5 997.5,-27.5 778,-27.5"/>
<text text-anchor="middle" x="832.5" y="-40.2" font-family="Times New Roman,serif" font-size="14.00">data shape (2, 3)</text>
<polyline fill="none" stroke="black" points="887,-27.75 887,-63.5"/>
<text text-anchor="middle" x="942.25" y="-40.2" font-family="Times New Roman,serif" font-size="14.00">grad shape (2, 3)</text>
</g>
<!-- 2268853692832&#45;&gt;2268853693504+ -->
<g id="edge9" class="edge">
<title>2268853692832&#45;&gt;2268853693504+</title>
<path fill="none" stroke="black" d="M997.73,-49.72C1120.24,-54.47 1312.54,-61.93 1393.07,-65.05"/>
<polygon fill="black" stroke="black" points="1392.48,-68.53 1402.61,-65.42 1392.75,-61.53 1392.48,-68.53"/>
</g>
<!-- 2268853692832&#45;&gt;2268853692880+ -->
<g id="edge11" class="edge">
<title>2268853692832&#45;&gt;2268853692880+</title>
<path fill="none" stroke="black" d="M997.86,-30.8C1006.52,-29.64 1014.83,-28.52 1022.39,-27.5"/>
<polygon fill="black" stroke="black" points="1022.65,-31 1032.09,-26.19 1021.71,-24.06 1022.65,-31"/>
</g>
<!-- 2268853692832*&#45;&gt;2268853692832 -->
<g id="edge6" class="edge">
<title>2268853692832*&#45;&gt;2268853692832</title>
<path fill="none" stroke="black" d="M742.31,-45.5C749.41,-45.5 757.58,-45.5 766.35,-45.5"/>
<polygon fill="black" stroke="black" points="766.23,-49 776.23,-45.5 766.23,-42 766.23,-49"/>
</g>
<!-- 2268422155712 -->
<g id="node15" class="node">
<title>2268422155712</title>
<polygon fill="none" stroke="black" points="1123.5,-101.5 1123.5,-137.5 1368.5,-137.5 1368.5,-101.5 1123.5,-101.5"/>
<text text-anchor="middle" x="1208.75" y="-114.2" font-family="Times New Roman,serif" font-size="14.00">data 5.0000, 6.0000, 1.0000</text>
<polyline fill="none" stroke="black" points="1294,-101.75 1294,-137.5"/>
<text text-anchor="middle" x="1331.25" y="-114.2" font-family="Times New Roman,serif" font-size="14.00">grad None</text>
</g>
<!-- 2268422155712&#45;&gt;2268853693072+ -->
<g id="edge15" class="edge">
<title>2268422155712&#45;&gt;2268853693072+</title>
<path fill="none" stroke="black" d="M1368.89,-120.83C1377.39,-120.92 1385.5,-121.01 1392.88,-121.09"/>
<polygon fill="black" stroke="black" points="1392.64,-124.59 1402.68,-121.2 1392.72,-117.59 1392.64,-124.59"/>
</g>
<!-- 2268422156240 -->
<g id="node16" class="node">
<title>2268422156240</title>
<polygon fill="none" stroke="black" points="0,-83.5 0,-119.5 245,-119.5 245,-83.5 0,-83.5"/>
<text text-anchor="middle" x="85.25" y="-96.2" font-family="Times New Roman,serif" font-size="14.00">data 1.0000, 2.0000, 1.0000</text>
<polyline fill="none" stroke="black" points="170.5,-83.75 170.5,-119.5"/>
<text text-anchor="middle" x="207.75" y="-96.2" font-family="Times New Roman,serif" font-size="14.00">grad None</text>
</g>
<!-- 2268422156240&#45;&gt;2268853692592+ -->
<g id="edge7" class="edge">
<title>2268422156240&#45;&gt;2268853692592+</title>
<path fill="none" stroke="black" d="M244.62,-83.02C253.68,-81.64 262.31,-80.32 270.11,-79.13"/>
<polygon fill="black" stroke="black" points="270.39,-82.63 279.75,-77.66 269.34,-75.71 270.39,-82.63"/>
</g>
<!-- 2268422156192 -->
<g id="node17" class="node">
<title>2268422156192</title>
<polygon fill="none" stroke="black" points="0,-28.5 0,-64.5 245,-64.5 245,-28.5 0,-28.5"/>
<text text-anchor="middle" x="85.25" y="-41.2" font-family="Times New Roman,serif" font-size="14.00">data 3.0000, 1.0000, 1.0000</text>
<polyline fill="none" stroke="black" points="170.5,-28.75 170.5,-64.5"/>
<text text-anchor="middle" x="207.75" y="-41.2" font-family="Times New Roman,serif" font-size="14.00">grad None</text>
</g>
<!-- 2268422156192&#45;&gt;2268853692592+ -->
<g id="edge17" class="edge">
<title>2268422156192&#45;&gt;2268853692592+</title>
<path fill="none" stroke="black" d="M245.39,-64.43C254.16,-65.73 262.52,-66.96 270.1,-68.07"/>
<polygon fill="black" stroke="black" points="269.4,-71.5 279.8,-69.5 270.42,-64.58 269.4,-71.5"/>
</g>
</g>
</svg>
