<?xml version="1.0" encoding="UTF-8" standalone="no"?>
<!DOCTYPE svg PUBLIC "-//W3C//DTD SVG 1.1//EN"
 "http://www.w3.org/Graphics/SVG/1.1/DTD/svg11.dtd">
<!-- Generated by graphviz version 12.0.0 (20240704.0754)
 -->
<!-- Pages: 1 -->
<svg width="2134pt" height="191pt"
 viewBox="0.00 0.00 2134.25 191.00" xmlns="http://www.w3.org/2000/svg" xmlns:xlink="http://www.w3.org/1999/xlink">
<g id="graph0" class="graph" transform="scale(1 1) rotate(0) translate(4 187)">
<polygon fill="white" stroke="none" points="-4,4 -4,-187 2130.25,-187 2130.25,4 -4,4"/>
<!-- 1625199905328 -->
<g id="node1" class="node">
<title>1625199905328</title>
<polygon fill="none" stroke="black" points="1112.62,-146.5 1112.62,-182.5 1312.62,-182.5 1312.62,-146.5 1112.62,-146.5"/>
<text text-anchor="middle" x="1175.38" y="-159.2" font-family="Times New Roman,serif" font-size="14.00">data 9.0000, 8.0000</text>
<polyline fill="none" stroke="black" points="1238.12,-146.75 1238.12,-182.5"/>
<text text-anchor="middle" x="1275.38" y="-159.2" font-family="Times New Roman,serif" font-size="14.00">grad None</text>
</g>
<!-- 1625199905376+ -->
<g id="node3" class="node">
<title>1625199905376+</title>
<ellipse fill="none" stroke="black" cx="1405.25" cy="-109.5" rx="27" ry="18"/>
<text text-anchor="middle" x="1405.25" y="-104.08" font-family="Times New Roman,serif" font-size="14.00">+</text>
</g>
<!-- 1625199905328&#45;&gt;1625199905376+ -->
<g id="edge7" class="edge">
<title>1625199905328&#45;&gt;1625199905376+</title>
<path fill="none" stroke="black" d="M1312.52,-146.03C1322.64,-143.46 1332.71,-140.62 1342.25,-137.5 1352.45,-134.17 1363.21,-129.68 1372.86,-125.27"/>
<polygon fill="black" stroke="black" points="1374.27,-128.48 1381.82,-121.04 1371.28,-122.15 1374.27,-128.48"/>
</g>
<!-- 1625199905376 -->
<g id="node2" class="node">
<title>1625199905376</title>
<polygon fill="none" stroke="black" points="1468.25,-91.5 1468.25,-127.5 1734.25,-127.5 1734.25,-91.5 1468.25,-91.5"/>
<text text-anchor="middle" x="1537.75" y="-104.2" font-family="Times New Roman,serif" font-size="14.00">data 14.0000, 14.0000</text>
<polyline fill="none" stroke="black" points="1607.25,-91.75 1607.25,-127.5"/>
<text text-anchor="middle" x="1670.75" y="-104.2" font-family="Times New Roman,serif" font-size="14.00">grad 1.0000, 1.0000</text>
</g>
<!-- 1625199905568+ -->
<g id="node9" class="node">
<title>1625199905568+</title>
<ellipse fill="none" stroke="black" cx="1797.25" cy="-81.5" rx="27" ry="18"/>
<text text-anchor="middle" x="1797.25" y="-76.08" font-family="Times New Roman,serif" font-size="14.00">+</text>
</g>
<!-- 1625199905376&#45;&gt;1625199905568+ -->
<g id="edge8" class="edge">
<title>1625199905376&#45;&gt;1625199905568+</title>
<path fill="none" stroke="black" d="M1730.3,-91.02C1740.7,-89.52 1750.57,-88.09 1759.36,-86.82"/>
<polygon fill="black" stroke="black" points="1759.71,-90.31 1769.11,-85.42 1758.71,-83.38 1759.71,-90.31"/>
</g>
<!-- 1625199905376+&#45;&gt;1625199905376 -->
<g id="edge1" class="edge">
<title>1625199905376+&#45;&gt;1625199905376</title>
<path fill="none" stroke="black" d="M1432.41,-109.5C1439.55,-109.5 1447.8,-109.5 1456.75,-109.5"/>
<polygon fill="black" stroke="black" points="1456.46,-113 1466.46,-109.5 1456.46,-106 1456.46,-113"/>
</g>
<!-- 1625199904944 -->
<g id="node4" class="node">
<title>1625199904944</title>
<polygon fill="none" stroke="black" points="1083,-36.5 1083,-72.5 1342.25,-72.5 1342.25,-36.5 1083,-36.5"/>
<text text-anchor="middle" x="1149.12" y="-49.2" font-family="Times New Roman,serif" font-size="14.00">data 12.0000, 9.0000</text>
<polyline fill="none" stroke="black" points="1215.25,-36.75 1215.25,-72.5"/>
<text text-anchor="middle" x="1278.75" y="-49.2" font-family="Times New Roman,serif" font-size="14.00">grad 1.0000, 1.0000</text>
</g>
<!-- 1625199905136+ -->
<g id="node12" class="node">
<title>1625199905136+</title>
<ellipse fill="none" stroke="black" cx="1405.25" cy="-54.5" rx="27" ry="18"/>
<text text-anchor="middle" x="1405.25" y="-49.08" font-family="Times New Roman,serif" font-size="14.00">+</text>
</g>
<!-- 1625199904944&#45;&gt;1625199905136+ -->
<g id="edge14" class="edge">
<title>1625199904944&#45;&gt;1625199905136+</title>
<path fill="none" stroke="black" d="M1342.62,-54.5C1351.18,-54.5 1359.32,-54.5 1366.71,-54.5"/>
<polygon fill="black" stroke="black" points="1366.52,-58 1376.52,-54.5 1366.52,-51 1366.52,-58"/>
</g>
<!-- 1625199904944+ -->
<g id="node5" class="node">
<title>1625199904944+</title>
<ellipse fill="none" stroke="black" cx="1020" cy="-54.5" rx="27" ry="18"/>
<text text-anchor="middle" x="1020" y="-49.08" font-family="Times New Roman,serif" font-size="14.00">+</text>
</g>
<!-- 1625199904944+&#45;&gt;1625199904944 -->
<g id="edge2" class="edge">
<title>1625199904944+&#45;&gt;1625199904944</title>
<path fill="none" stroke="black" d="M1047.11,-54.5C1054.28,-54.5 1062.6,-54.5 1071.6,-54.5"/>
<polygon fill="black" stroke="black" points="1071.37,-58 1081.37,-54.5 1071.37,-51 1071.37,-58"/>
</g>
<!-- 1624923898064 -->
<g id="node6" class="node">
<title>1624923898064</title>
<polygon fill="none" stroke="black" points="0,-55.5 0,-91.5 200,-91.5 200,-55.5 0,-55.5"/>
<text text-anchor="middle" x="62.75" y="-68.2" font-family="Times New Roman,serif" font-size="14.00">data 3.0000, 1.0000</text>
<polyline fill="none" stroke="black" points="125.5,-55.75 125.5,-91.5"/>
<text text-anchor="middle" x="162.75" y="-68.2" font-family="Times New Roman,serif" font-size="14.00">grad None</text>
</g>
<!-- 1624923889088+ -->
<g id="node14" class="node">
<title>1624923889088+</title>
<ellipse fill="none" stroke="black" cx="263" cy="-45.5" rx="27" ry="18"/>
<text text-anchor="middle" x="263" y="-40.08" font-family="Times New Roman,serif" font-size="14.00">+</text>
</g>
<!-- 1624923898064&#45;&gt;1624923889088+ -->
<g id="edge11" class="edge">
<title>1624923898064&#45;&gt;1624923889088+</title>
<path fill="none" stroke="black" d="M200.21,-56.25C209.07,-54.71 217.6,-53.22 225.35,-51.87"/>
<polygon fill="black" stroke="black" points="225.71,-55.36 234.96,-50.2 224.51,-48.47 225.71,-55.36"/>
</g>
<!-- 1624923898112 -->
<g id="node7" class="node">
<title>1624923898112</title>
<polygon fill="none" stroke="black" points="0,-0.5 0,-36.5 200,-36.5 200,-0.5 0,-0.5"/>
<text text-anchor="middle" x="62.75" y="-13.2" font-family="Times New Roman,serif" font-size="14.00">data 1.0000, 2.0000</text>
<polyline fill="none" stroke="black" points="125.5,-0.75 125.5,-36.5"/>
<text text-anchor="middle" x="162.75" y="-13.2" font-family="Times New Roman,serif" font-size="14.00">grad None</text>
</g>
<!-- 1624923898112&#45;&gt;1624923889088+ -->
<g id="edge17" class="edge">
<title>1624923898112&#45;&gt;1624923889088+</title>
<path fill="none" stroke="black" d="M200.21,-35.14C209.07,-36.62 217.6,-38.05 225.35,-39.35"/>
<polygon fill="black" stroke="black" points="224.52,-42.76 234.96,-40.97 225.68,-35.86 224.52,-42.76"/>
</g>
<!-- 1625199905568 -->
<g id="node8" class="node">
<title>1625199905568</title>
<polygon fill="none" stroke="black" points="1860.25,-63.5 1860.25,-99.5 2126.25,-99.5 2126.25,-63.5 1860.25,-63.5"/>
<text text-anchor="middle" x="1929.75" y="-76.2" font-family="Times New Roman,serif" font-size="14.00">data 30.0000, 26.0000</text>
<polyline fill="none" stroke="black" points="1999.25,-63.75 1999.25,-99.5"/>
<text text-anchor="middle" x="2062.75" y="-76.2" font-family="Times New Roman,serif" font-size="14.00">grad 1.0000, 1.0000</text>
</g>
<!-- 1625199905568+&#45;&gt;1625199905568 -->
<g id="edge3" class="edge">
<title>1625199905568+&#45;&gt;1625199905568</title>
<path fill="none" stroke="black" d="M1824.41,-81.5C1831.55,-81.5 1839.8,-81.5 1848.75,-81.5"/>
<polygon fill="black" stroke="black" points="1848.46,-85 1858.46,-81.5 1848.46,-78 1848.46,-85"/>
</g>
<!-- 1625198884176 -->
<g id="node10" class="node">
<title>1625198884176</title>
<polygon fill="none" stroke="black" points="1112.62,-91.5 1112.62,-127.5 1312.62,-127.5 1312.62,-91.5 1112.62,-91.5"/>
<text text-anchor="middle" x="1175.38" y="-104.2" font-family="Times New Roman,serif" font-size="14.00">data 5.0000, 6.0000</text>
<polyline fill="none" stroke="black" points="1238.12,-91.75 1238.12,-127.5"/>
<text text-anchor="middle" x="1275.38" y="-104.2" font-family="Times New Roman,serif" font-size="14.00">grad None</text>
</g>
<!-- 1625198884176&#45;&gt;1625199905376+ -->
<g id="edge16" class="edge">
<title>1625198884176&#45;&gt;1625199905376+</title>
<path fill="none" stroke="black" d="M1313.12,-109.5C1332.26,-109.5 1351.17,-109.5 1366.76,-109.5"/>
<polygon fill="black" stroke="black" points="1366.47,-113 1376.47,-109.5 1366.47,-106 1366.47,-113"/>
</g>
<!-- 1625199905136 -->
<g id="node11" class="node">
<title>1625199905136</title>
<polygon fill="none" stroke="black" points="1468.25,-36.5 1468.25,-72.5 1734.25,-72.5 1734.25,-36.5 1468.25,-36.5"/>
<text text-anchor="middle" x="1537.75" y="-49.2" font-family="Times New Roman,serif" font-size="14.00">data 16.0000, 12.0000</text>
<polyline fill="none" stroke="black" points="1607.25,-36.75 1607.25,-72.5"/>
<text text-anchor="middle" x="1670.75" y="-49.2" font-family="Times New Roman,serif" font-size="14.00">grad 1.0000, 1.0000</text>
</g>
<!-- 1625199905136&#45;&gt;1625199905568+ -->
<g id="edge9" class="edge">
<title>1625199905136&#45;&gt;1625199905568+</title>
<path fill="none" stroke="black" d="M1734.6,-72.92C1743.27,-74.13 1751.5,-75.27 1758.96,-76.31"/>
<polygon fill="black" stroke="black" points="1758.48,-79.78 1768.87,-77.69 1759.44,-72.84 1758.48,-79.78"/>
</g>
<!-- 1625199905136+&#45;&gt;1625199905136 -->
<g id="edge4" class="edge">
<title>1625199905136+&#45;&gt;1625199905136</title>
<path fill="none" stroke="black" d="M1432.41,-54.5C1439.55,-54.5 1447.8,-54.5 1456.75,-54.5"/>
<polygon fill="black" stroke="black" points="1456.46,-58 1466.46,-54.5 1456.46,-51 1456.46,-58"/>
</g>
<!-- 1624923889088 -->
<g id="node13" class="node">
<title>1624923889088</title>
<polygon fill="none" stroke="black" points="326,-27.5 326,-63.5 578.5,-63.5 578.5,-27.5 326,-27.5"/>
<text text-anchor="middle" x="388.75" y="-40.2" font-family="Times New Roman,serif" font-size="14.00">data 4.0000, 3.0000</text>
<polyline fill="none" stroke="black" points="451.5,-27.75 451.5,-63.5"/>
<text text-anchor="middle" x="515" y="-40.2" font-family="Times New Roman,serif" font-size="14.00">grad 4.0000, 4.0000</text>
</g>
<!-- 1624923889088&#45;&gt;1625199904944+ -->
<g id="edge12" class="edge">
<title>1624923889088&#45;&gt;1625199904944+</title>
<path fill="none" stroke="black" d="M578.81,-47.5C707.88,-49.55 901.03,-52.62 981.61,-53.91"/>
<polygon fill="black" stroke="black" points="981.09,-57.4 991.15,-54.06 981.2,-50.4 981.09,-57.4"/>
</g>
<!-- 1624923889088&#45;&gt;1625199905136+ -->
<g id="edge15" class="edge">
<title>1624923889088&#45;&gt;1625199905136+</title>
<path fill="none" stroke="black" d="M574.6,-27C648.22,-17.34 744.18,-7.5 829.75,-7.5 829.75,-7.5 829.75,-7.5 1021,-7.5 1164.03,-7.5 1203.38,7.73 1342.25,-26.5 1352.95,-29.14 1364.08,-33.57 1373.91,-38.14"/>
<polygon fill="black" stroke="black" points="1372.1,-41.15 1382.62,-42.4 1375.18,-34.86 1372.1,-41.15"/>
</g>
<!-- 1625199904752+ -->
<g id="node16" class="node">
<title>1625199904752+</title>
<ellipse fill="none" stroke="black" cx="641.5" cy="-91.5" rx="27" ry="18"/>
<text text-anchor="middle" x="641.5" y="-86.08" font-family="Times New Roman,serif" font-size="14.00">+</text>
</g>
<!-- 1624923889088&#45;&gt;1625199904752+ -->
<g id="edge10" class="edge">
<title>1624923889088&#45;&gt;1625199904752+</title>
<path fill="none" stroke="black" d="M528.33,-63.94C554.72,-70.43 583.16,-77.41 604.8,-82.73"/>
<polygon fill="black" stroke="black" points="603.74,-86.07 614.29,-85.06 605.41,-79.28 603.74,-86.07"/>
</g>
<!-- 1624923889088+&#45;&gt;1624923889088 -->
<g id="edge5" class="edge">
<title>1624923889088+&#45;&gt;1624923889088</title>
<path fill="none" stroke="black" d="M290.43,-45.5C297.45,-45.5 305.53,-45.5 314.26,-45.5"/>
<polygon fill="black" stroke="black" points="314.11,-49 324.11,-45.5 314.11,-42 314.11,-49"/>
</g>
<!-- 1625199904752 -->
<g id="node15" class="node">
<title>1625199904752</title>
<polygon fill="none" stroke="black" points="704.5,-74.5 704.5,-110.5 957,-110.5 957,-74.5 704.5,-74.5"/>
<text text-anchor="middle" x="767.25" y="-87.2" font-family="Times New Roman,serif" font-size="14.00">data 8.0000, 6.0000</text>
<polyline fill="none" stroke="black" points="830,-74.75 830,-110.5"/>
<text text-anchor="middle" x="893.5" y="-87.2" font-family="Times New Roman,serif" font-size="14.00">grad 1.0000, 1.0000</text>
</g>
<!-- 1625199904752&#45;&gt;1625199904944+ -->
<g id="edge13" class="edge">
<title>1625199904752&#45;&gt;1625199904944+</title>
<path fill="none" stroke="black" d="M922.91,-74C944.07,-69.71 965.39,-65.38 982.56,-61.89"/>
<polygon fill="black" stroke="black" points="983.14,-65.35 992.25,-59.93 981.75,-58.49 983.14,-65.35"/>
</g>
<!-- 1625199904752+&#45;&gt;1625199904752 -->
<g id="edge6" class="edge">
<title>1625199904752+&#45;&gt;1625199904752</title>
<path fill="none" stroke="black" d="M668.93,-91.64C675.95,-91.68 684.03,-91.72 692.76,-91.77"/>
<polygon fill="black" stroke="black" points="692.59,-95.27 702.61,-91.82 692.63,-88.27 692.59,-95.27"/>
</g>
</g>
</svg>
